<svg width="187" height="58" viewBox="0 0 187 58" fill="none" xmlns="http://www.w3.org/2000/svg">
<path d="M167.864 53.4534C167.475 54.1553 166.889 54.5642 166.262 54.5642H4.17925C3.53169 54.5642 3 53.9032 3 53.0922V4.52492C3 3.70718 3.52487 3.05298 4.17925 3.05298H165.955C166.412 3.05298 166.841 3.346 167.127 3.84347L183.644 26.6858C184.094 27.3128 184.121 28.151 183.705 28.7984L167.87 53.4534H167.864Z" fill="white" stroke="#010101" stroke-width="5.01" stroke-miterlimit="10"/>
<path d="M34.4922 41.0441C31.0363 41.0441 28.2688 39.8311 26.1829 37.3983C24.172 35.0405 23.1632 32.1784 23.1632 28.8052C23.1632 25.432 24.1652 22.5494 26.1829 20.212C28.2756 17.7792 31.0499 16.5662 34.4922 16.5662C37.9345 16.5662 40.7293 17.7792 42.8015 20.212C43.0469 20.4982 43.1628 20.7708 43.1628 21.0366C43.1628 21.3705 42.9787 21.6908 42.6107 21.9838L40.702 23.5307C40.4089 23.776 40.1295 23.8919 39.8636 23.8919C39.5296 23.8919 39.216 23.7147 38.9297 23.3535C37.8459 21.9838 36.3599 21.3023 34.4718 21.3023C32.5836 21.3023 31.1998 21.9565 30.1297 23.2581C28.9504 24.6892 28.3574 26.5359 28.3574 28.7983C28.3574 31.0608 28.9436 32.962 30.1297 34.3386C31.2476 35.647 32.7063 36.2943 34.5058 36.2943C36.3054 36.2943 37.8459 35.6129 38.9297 34.2432C39.216 33.8888 39.5228 33.7048 39.8636 33.7048C40.1295 33.7048 40.4089 33.8275 40.702 34.066L42.6107 35.6129C42.9787 35.9059 43.1628 36.2262 43.1628 36.5601C43.1628 36.8259 43.0401 37.0985 42.8015 37.3847C40.7157 39.8175 37.9482 41.0305 34.4922 41.0305V41.0441Z" fill="#010101"/>
<path d="M52.174 40.7239H49.427C48.8271 40.7239 48.5272 40.4582 48.5272 39.9198C48.5272 39.7699 48.5477 39.6336 48.5886 39.5109L55.9981 17.902C56.2299 17.2205 56.707 16.8798 57.4227 16.8798H62.576C63.2917 16.8798 63.7689 17.2205 64.0007 17.9088L71.4102 39.5178C71.4511 39.6404 71.4715 39.7767 71.4715 39.913C71.4715 40.4582 71.1716 40.7307 70.5718 40.7307H67.6747C66.959 40.7307 66.4887 40.3968 66.2569 39.7222L63.8916 32.601H55.9572L53.5919 39.7222C53.3601 40.3968 52.883 40.7307 52.1672 40.7307L52.174 40.7239ZM57.5386 27.8512H62.3238L59.9312 20.6483L57.5386 27.8512Z" fill="#010101"/>
<path d="M83.0665 40.7239C82.2213 40.7239 81.8054 40.3082 81.8054 39.4769V21.6159H76.2296C75.3843 21.6159 74.9685 21.2002 74.9685 20.3689V18.1269C74.9685 17.2955 75.3911 16.8798 76.2296 16.8798H92.4392C93.2844 16.8798 93.7002 17.2955 93.7002 18.1269V20.3689C93.7002 21.2002 93.2776 21.6159 92.4392 21.6159H86.8633V39.4769C86.8633 40.3082 86.4407 40.7239 85.6022 40.7239H83.0733H83.0665Z" fill="#010101"/>
<path d="M112.384 41.0441C109.405 41.0441 106.883 39.872 104.818 37.521C104.6 37.2552 104.484 36.9826 104.484 36.6964C104.484 36.3625 104.675 36.049 105.05 35.7628L107.013 34.2772C107.292 34.066 107.572 33.9638 107.844 33.9638C108.219 33.9638 108.519 34.1478 108.737 34.5157C109.46 35.7083 110.694 36.3012 112.446 36.3012C113.775 36.3012 114.838 35.9672 115.636 35.2926C116.324 34.7134 116.672 33.9842 116.672 33.1119C116.672 31.9739 115.99 31.1221 114.62 30.5497L110.939 29.03C107.851 27.7557 106.311 25.7454 106.311 23.006C106.311 20.8935 107.156 19.183 108.853 17.8814C109.998 17.0024 111.505 16.5662 113.352 16.5662C115.888 16.5662 117.871 17.4044 119.289 19.074C119.507 19.3397 119.623 19.6123 119.623 19.8985C119.623 20.2325 119.432 20.5459 119.058 20.8321L117.088 22.3177C116.801 22.529 116.522 22.6312 116.249 22.6312C115.867 22.6312 115.574 22.454 115.349 22.086C114.899 21.35 114.231 20.9889 113.345 20.9889C112.65 20.9889 112.132 21.1592 111.784 21.4931C111.498 21.7657 111.362 22.0928 111.362 22.4676C111.362 23.3467 112.166 24.1167 113.775 24.7778L117.101 26.1475C120.23 27.4354 121.818 29.6774 121.866 32.8803C121.866 34.8497 121.137 36.6351 119.671 38.2433C117.953 40.1173 115.52 41.0509 112.371 41.0509L112.384 41.0441Z" fill="#010101"/>
<path d="M135.281 40.7239C134.436 40.7239 134.02 40.3082 134.02 39.4769V21.6159H128.444C127.599 21.6159 127.183 21.2002 127.183 20.3689V18.1269C127.183 17.2955 127.606 16.8798 128.444 16.8798H144.654C145.499 16.8798 145.915 17.2955 145.915 18.1269V20.3689C145.915 21.2002 145.492 21.6159 144.654 21.6159H139.078V39.4769C139.078 40.3082 138.655 40.7239 137.817 40.7239H135.288H135.281Z" fill="#010101"/>
<path d="M148.375 41.0373C150.115 41.0373 151.525 39.6278 151.525 37.889C151.525 36.1502 150.115 34.7407 148.375 34.7407C146.636 34.7407 145.226 36.1502 145.226 37.889C145.226 39.6278 146.636 41.0373 148.375 41.0373Z" fill="#010101"/>
</svg>
